#!OML:ASF F:\VICON\USERDATA\INSTALL\rory3\rory3.ASF
:FULLY-SPECIFIED
:DEGREES
193
root 8.86947 17.9246 1.49199 -7.8155 -33.5274 9.20125
lowerback 10.9419 0.244473 -5.8047
upperback 1.69571 -0.405901 -0.51332
thorax -4.32674 -0.127347 2.79386
lowerneck -15.8691 -7.54055 -13.6056
upperneck 26.8301 -10.7088 11.7586
head 13.0304 -4.80987 5.07979
rclavicle -5.56597e-014 1.11319e-014
rhumerus -35.6142 -16.7035 -77.5425
rradius 26.8378
rwrist 9.0555
rhand -15.1597 7.30273
rfingers 7.12502
rthumb 11.0107 -22.3885
lclavicle -5.56597e-014 1.11319e-014
lhumerus -30.2092 4.46793 78.241
lradius 33.0425
lwrist -6.22431
lhand -15.1519 28.3218
lfingers 7.12502
lthumb 11.0183 58.0126
rfemur -27.8103 -9.68164 16.351
rtibia 50.3624
rfoot -7.91512 -8.55408
rtoes 17.124
lfemur 9.0685 1.65277 -26.4543
ltibia 9.66489
lfoot -8.46765 -8.67619
ltoes -18.0933
194
root 8.80042 17.9304 1.58035 -7.58805 -33.8561 9.12482
lowerback 10.7643 0.164074 -5.75415
upperback 1.70224 -0.491962 -0.477499
thorax -4.21354 -0.173601 2.8137
lowerneck -16.3366 -7.70887 -13.4263
upperneck 27.1844 -10.899 11.4614
head 13.2737 -4.8934 4.89458
rclavicle 7.05189e-014 -1.51076e-014
rhumerus -35.71 -17.438 -77.1499
rradius 26.501
rwrist 9.66947
rhand -15.1672 7.01704
rfingers 7.12502
rthumb 11.0035 -22.6746
lclavicle 7.05189e-014 -1.51076e-014
lhumerus -29.9009 4.75078 77.8821
lradius 33.6238
lwrist -6.39467
lhand -14.5614 28.6485
lfingers 7.12502
lthumb 11.5878 58.3082
rfemur -27.8058 -9.8492 16.7123
rtibia 47.4678
rfoot -7.89782 -9.75781
rtoes 18.2129
lfemur 9.63265 1.53136 -26.3672
ltibia 8.86236
lfoot -8.06124 -8.42775
ltoes -19.3171
195
root 8.73111 17.9332 1.66465 -7.47063 -34.1682 9.31115
lowerback 10.6573 0.107972 -5.9298
upperback 1.62006 -0.58143 -0.476228
thorax -4.23041 -0.212797 2.92576
lowerneck -16.6691 -7.79699 -13.2855
upperneck 27.4944 -10.9741 11.17
head 13.4551 -4.93505 4.74015
rclavicle 7.50412e-015 1.59028e-015
rhumerus -35.9675 -17.74 -76.8337
rradius 26.3059
rwrist 9.88681
rhand -15.0625 7.33378
rfingers 7.12502
rthumb 11.1045 -22.3524
lclavicle 7.50412e-015 1.59028e-015
lhumerus -29.6225 4.80302 77.6768
lradius 33.9384
lwrist -6.04533
lhand -14.7124 28.9222
lfingers 7.12502
lthumb 11.4421 58.59
rfemur -27.8533 -10.0428 16.8336
rtibia 44.5489
rfoot -7.48145 -10.7643
rtoes 18.8358
lfemur 10.2643 1.41993 -26.5323
ltibia 7.86979
lfoot -7.60948 -8.18317
ltoes -20.133
196
root 8.65703 17.9386 1.74993 -7.40744 -34.4847 9.59978
lowerback 10.5749 0.116221 -6.23095
upperback 1.47857 -0.602367 -0.454189
thorax -4.32782 -0.21196 3.12114
lowerneck -16.6198 -7.8359 -13.4468
upperneck 27.556 -11.0286 11.2546
head 13.4971 -4.96879 4.79479
rclavicle 1.00386e-014 -7.95139e-016
rhumerus -36.3739 -18.0797 -76.3618
rradius 26.1331
rwrist 9.99007
rhand -14.8271 7.77265
rfingers 7.12502
rthumb 11.3315 -21.9012
lclavicle 1.00386e-014 -7.95139e-016
lhumerus -29.1958 4.10712 77.8072
lradius 33.7636
lwrist -4.87432
lhand -15.736 28.5281
lfingers 7.12502
lthumb 10.4548 58.2481
rfemur -27.8505 -10.0749 16.8343
rtibia 41.654
rfoot -7.00628 -11.662
rtoes 20.377
lfemur 11.116 1.32447 -26.7876
ltibia 6.47098
lfoot -7.04263 -7.90137
ltoes -21.3291
197
root 8.58053 17.9515 1.83904 -7.3605 -34.814 9.77218
lowerback 10.481 0.146805 -6.35035
upperback 1.40732 -0.571304 -0.46622
thorax -4.3525 -0.192245 3.17078
lowerneck -16.4595 -7.90531 -13.5614
upperneck 27.4924 -11.1637 11.4039
head 13.4776 -5.02891 4.85062
rclavicle -7.29043e-014 -6.36111e-015
rhumerus -36.7623 -18.5729 -75.9976
rradius 26.0438
rwrist 9.92924
rhand -14.9586 7.35277
rfingers 7.12502
rthumb 11.2046 -22.328
lclavicle -7.29043e-014 -6.36111e-015
lhumerus -28.7035 3.74272 77.6692
lradius 33.654
lwrist -4.91699
lhand -15.5059 28.4967
lfingers 7.12502
lthumb 10.6767 58.2054
rfemur -27.7142 -10.143 16.9404
rtibia 38.7875
rfoot -6.48734 -12.4333
rtoes 22.9493
lfemur 12.3428 1.23595 -26.9344
ltibia 4.54875
lfoot -6.15105 -7.62707
ltoes -21.3566
198
root 8.50298 17.9571 1.9295 -7.29975 -35.1698 9.83762
lowerback 10.3393 0.122535 -6.34183
upperback 1.40942 -0.591705 -0.468935
thorax -4.2694 -0.205127 3.16444
lowerneck -16.5452 -7.92974 -13.5203
upperneck 27.5461 -11.2023 11.3797
head 13.52 -5.04186 4.82594
rclavicle 3.13086e-015 -9.54166e-015
rhumerus -36.9851 -18.7468 -75.8895
rradius 26.0643
rwrist 9.69529
rhand -15.3776 6.53613
rfingers 7.12502
rthumb 10.8005 -23.1662
lclavicle 3.13086e-015 -9.54166e-015
lhumerus -28.2857 3.49125 77.5119
lradius 33.8205
lwrist -4.43895
lhand -15.7078 28.41
lfingers 7.12502
lthumb 10.482 58.1287
rfemur -27.56 -10.3096 17.1942
rtibia 36.0017
rfoot -5.75773 -12.9949
rtoes 24.6854
lfemur 14.93 1.17039 -27.0119
ltibia 9.54166e-015
lfoot -3.91472 -7.55529
ltoes -21.0581
